<svg width="20" height="20" viewBox="0 0 20 20" fill="none" xmlns="http://www.w3.org/2000/svg">
<path d="M16.4166 0.833496H4.74748C4.10415 0.833711 3.48126 1.05946 2.98718 1.47147C2.49311 1.88349 2.15911 2.45568 2.04331 3.0885L0.879145 9.50516C0.806608 9.90156 0.822078 10.3091 0.924461 10.6988C1.02684 11.0886 1.21364 11.4511 1.47162 11.7607C1.7296 12.0703 2.05248 12.3193 2.41739 12.4903C2.7823 12.6613 3.18033 12.75 3.58331 12.7502H7.76331L7.24998 14.061C7.03646 14.6349 6.96535 15.2521 7.04275 15.8596C7.12016 16.467 7.34376 17.0466 7.69439 17.5487C8.04502 18.0508 8.5122 18.4603 9.05587 18.7421C9.59953 19.0239 10.2034 19.1697 10.8158 19.1668C10.9921 19.1665 11.1646 19.1152 11.3126 19.0193C11.4605 18.9234 11.5777 18.7868 11.65 18.626L14.2625 12.7502H16.4166C17.146 12.7502 17.8455 12.4604 18.3612 11.9447C18.8769 11.429 19.1666 10.7295 19.1666 10.0002V3.5835C19.1666 2.85415 18.8769 2.15468 18.3612 1.63895C17.8455 1.12323 17.146 0.833496 16.4166 0.833496ZM12.75 11.641L10.2566 17.251C10.0015 17.1738 9.76492 17.0452 9.56139 16.8731C9.35786 16.701 9.19173 16.4891 9.07321 16.2503C8.9547 16.0116 8.88633 15.7511 8.8723 15.4849C8.85827 15.2188 8.89889 14.9525 8.99165 14.7027L9.47748 13.3918C9.581 13.1148 9.61595 12.8168 9.57934 12.5233C9.54274 12.2298 9.43566 11.9495 9.26726 11.7063C9.09885 11.4632 8.87412 11.2644 8.61223 11.1269C8.35035 10.9894 8.05909 10.9173 7.76331 10.9168H3.58331C3.44864 10.917 3.31558 10.8876 3.19359 10.8306C3.07159 10.7735 2.96367 10.6903 2.87748 10.5868C2.78917 10.4848 2.72449 10.3645 2.68804 10.2346C2.6516 10.1046 2.64429 9.96825 2.66665 9.83516L3.83081 3.4185C3.86986 3.20495 3.98342 3.01219 4.15129 2.87455C4.31915 2.7369 4.53042 2.66329 4.74748 2.66683H12.75V11.641ZM17.3333 10.0002C17.3333 10.2433 17.2367 10.4764 17.0648 10.6483C16.8929 10.8203 16.6598 10.9168 16.4166 10.9168H14.5833V2.66683H16.4166C16.6598 2.66683 16.8929 2.76341 17.0648 2.93531C17.2367 3.10722 17.3333 3.34038 17.3333 3.5835V10.0002Z" fill="#87919C"/>
</svg>
