<svg width="4" height="14" viewBox="0 0 4 14" fill="none" xmlns="http://www.w3.org/2000/svg">
<path d="M1.9999 3.43535C2.28192 3.43535 2.55761 3.35172 2.7921 3.19504C3.02659 3.03835 3.20936 2.81565 3.31728 2.5551C3.42521 2.29455 3.45345 2.00784 3.39843 1.73124C3.34341 1.45464 3.2076 1.20056 3.00818 1.00114C2.80876 0.801721 2.55469 0.665915 2.27808 0.610895C2.00148 0.555876 1.71478 0.584114 1.45422 0.692039C1.19367 0.799964 0.97097 0.982728 0.814287 1.21722C0.657605 1.45171 0.573975 1.7274 0.573975 2.00942C0.573975 2.3876 0.724207 2.75029 0.99162 3.0177C1.25903 3.28512 1.62172 3.43535 1.9999 3.43535ZM1.9999 10.565C1.71788 10.565 1.44219 10.6486 1.2077 10.8053C0.973207 10.962 0.790442 11.1847 0.682517 11.4452C0.574592 11.7058 0.546354 11.9925 0.601374 12.2691C0.656394 12.5457 0.7922 12.7998 0.99162 12.9992C1.19104 13.1986 1.44511 13.3344 1.72172 13.3894C1.99832 13.4444 2.28502 13.4162 2.54558 13.3083C2.80613 13.2004 3.02883 13.0176 3.18551 12.7831C3.3422 12.5486 3.42583 12.2729 3.42583 11.9909C3.42583 11.6127 3.27559 11.25 3.00818 10.9826C2.74077 10.7152 2.37808 10.565 1.9999 10.565ZM1.9999 5.57424C1.71788 5.57424 1.44219 5.65787 1.2077 5.81455C0.973207 5.97123 0.790442 6.19393 0.682517 6.45448C0.574592 6.71504 0.546354 7.00174 0.601374 7.27835C0.656394 7.55495 0.7922 7.80902 0.99162 8.00844C1.19104 8.20786 1.44511 8.34367 1.72172 8.39869C1.99832 8.45371 2.28502 8.42547 2.54558 8.31754C2.80613 8.20962 3.02883 8.02686 3.18551 7.79236C3.3422 7.55787 3.42583 7.28218 3.42583 7.00016C3.42583 6.62198 3.27559 6.25929 3.00818 5.99188C2.74077 5.72447 2.37808 5.57424 1.9999 5.57424Z" fill="#87919C"/>
</svg>
