<svg width="20" height="20" viewBox="0 0 20 20" fill="none" xmlns="http://www.w3.org/2000/svg">
<path d="M18.5249 8.2402C18.2673 7.93096 17.945 7.68203 17.5807 7.51097C17.2164 7.33991 16.819 7.25089 16.4166 7.2502H12.2366L12.7499 5.93937C12.9634 5.36543 13.0345 4.74826 12.9571 4.1408C12.8797 3.53334 12.6561 2.95372 12.3055 2.45166C11.9549 1.94961 11.4877 1.5401 10.944 1.25827C10.4004 0.976436 9.79645 0.830692 9.18408 0.833537C9.00775 0.833905 8.83527 0.885123 8.68732 0.98105C8.53936 1.07698 8.42221 1.21354 8.34992 1.37437L5.73742 7.2502H3.58325C2.85391 7.2502 2.15443 7.53994 1.63871 8.05566C1.12298 8.57138 0.833252 9.27086 0.833252 10.0002V16.4169C0.833252 17.1462 1.12298 17.8457 1.63871 18.3614C2.15443 18.8771 2.85391 19.1669 3.58325 19.1669H15.2524C15.8957 19.1667 16.5186 18.9409 17.0127 18.5289C17.5068 18.1169 17.8408 17.5447 17.9566 16.9119L19.1208 10.4952C19.1928 10.0986 19.1767 9.69109 19.0737 9.30141C18.9708 8.91173 18.7834 8.54944 18.5249 8.2402ZM5.41659 17.3335H3.58325C3.34014 17.3335 3.10698 17.237 2.93507 17.0651C2.76316 16.8931 2.66659 16.66 2.66659 16.4169V10.0002C2.66659 9.75709 2.76316 9.52393 2.93507 9.35202C3.10698 9.18011 3.34014 9.08354 3.58325 9.08354H5.41659V17.3335ZM17.3333 10.1652L16.1691 16.5819C16.13 16.7954 16.0165 16.9882 15.8486 17.1258C15.6807 17.2635 15.4695 17.3371 15.2524 17.3335H7.24992V8.35937L9.74325 2.74937C9.9999 2.82419 10.2383 2.95141 10.4433 3.12299C10.6483 3.29457 10.8155 3.50678 10.9344 3.74624C11.0532 3.9857 11.1212 4.24719 11.1339 4.51423C11.1466 4.78126 11.1038 5.04803 11.0083 5.2977L10.5224 6.60854C10.4189 6.8856 10.3839 7.18361 10.4206 7.47711C10.4572 7.77061 10.5642 8.0509 10.7326 8.29405C10.901 8.5372 11.1258 8.736 11.3877 8.87347C11.6496 9.01095 11.9408 9.08302 12.2366 9.08354H16.4166C16.5513 9.08332 16.6843 9.11277 16.8063 9.16981C16.9283 9.22685 17.0362 9.31006 17.1224 9.41354C17.2107 9.51558 17.2754 9.63587 17.3119 9.7658C17.3483 9.89574 17.3556 10.0321 17.3333 10.1652Z" fill="#87919C"/>
</svg>
