<svg width="18" height="18" viewBox="0 0 18 18" fill="none" xmlns="http://www.w3.org/2000/svg">
<path d="M8.99996 0.666504C7.35179 0.666504 5.74062 1.15525 4.37021 2.07092C2.9998 2.9866 1.9317 4.28809 1.30097 5.81081C0.670237 7.33353 0.505209 9.00908 0.826752 10.6256C1.1483 12.2421 1.94197 13.727 3.10741 14.8924C4.27284 16.0578 5.7577 16.8515 7.37421 17.173C8.99072 17.4946 10.6663 17.3296 12.189 16.6988C13.7117 16.0681 15.0132 15 15.9289 13.6296C16.8446 12.2592 17.3333 10.648 17.3333 8.99984C17.3333 7.90549 17.1177 6.82186 16.699 5.81081C16.2802 4.79976 15.6663 3.8811 14.8925 3.10728C14.1187 2.33346 13.2 1.71963 12.189 1.30084C11.1779 0.882052 10.0943 0.666504 8.99996 0.666504ZM8.99996 15.6665C7.68142 15.6665 6.39249 15.2755 5.29616 14.543C4.19983 13.8104 3.34535 12.7692 2.84077 11.5511C2.33618 10.3329 2.20416 8.99244 2.46139 7.69924C2.71863 6.40603 3.35357 5.21814 4.28592 4.28579C5.21827 3.35344 6.40615 2.7185 7.69936 2.46127C8.99257 2.20403 10.333 2.33606 11.5512 2.84064C12.7694 3.34522 13.8105 4.19971 14.5431 5.29604C15.2756 6.39236 15.6666 7.6813 15.6666 8.99984C15.6666 10.7679 14.9643 12.4636 13.714 13.7139C12.4638 14.9641 10.7681 15.6665 8.99996 15.6665ZM12.3333 8.1665H5.66663C5.44562 8.1665 5.23365 8.2543 5.07737 8.41058C4.92109 8.56686 4.8333 8.77882 4.8333 8.99984C4.8333 9.22085 4.92109 9.43281 5.07737 9.58909C5.23365 9.74537 5.44562 9.83317 5.66663 9.83317H12.3333C12.5543 9.83317 12.7663 9.74537 12.9226 9.58909C13.0788 9.43281 13.1666 9.22085 13.1666 8.99984C13.1666 8.77882 13.0788 8.56686 12.9226 8.41058C12.7663 8.2543 12.5543 8.1665 12.3333 8.1665Z" fill="#E3405E"/>
</svg>
