<svg width="24" height="24" viewBox="0 0 24 24" fill="none" xmlns="http://www.w3.org/2000/svg">
<path d="M11.1679 1.06072C11.3248 0.743858 11.6478 0.542969 12.001 0.542969C12.3541 0.542969 12.6777 0.743858 12.834 1.06072L15.822 7.11586C15.9571 7.38976 16.2191 7.57977 16.522 7.62378L23.2041 8.59457C23.5547 8.64531 23.8446 8.89073 23.9538 9.22675C24.0631 9.56277 23.972 9.93245 23.7188 10.1789L18.884 14.8925C18.665 15.1059 18.565 15.4134 18.6163 15.7147L19.7574 22.3705C19.8165 22.7194 19.6741 23.0715 19.3872 23.2796C19.1009 23.4867 18.7224 23.5142 18.4087 23.3506L12.4317 20.2078C12.1615 20.0654 11.8379 20.0654 11.5671 20.2078L5.59012 23.3501C5.27739 23.5142 4.89788 23.4873 4.61156 23.2796C4.32524 23.072 4.18234 22.7194 4.24188 22.3705L5.38301 15.7147C5.43479 15.4134 5.33434 15.1059 5.11533 14.8925L0.280541 10.1789C0.0273592 9.93193 -0.0637656 9.56277 0.0454806 9.22675C0.154727 8.89073 0.445187 8.64531 0.795707 8.59457L7.47888 7.62378C7.78125 7.57977 8.04324 7.38976 8.17837 7.11535L11.1679 1.06072Z" fill="#CED7E0"/>
</svg>
