<svg width="20" height="20" fill="none" xmlns="http://www.w3.org/2000/svg"><path d="M16.417.833H4.747a2.75 2.75 0 00-2.704 2.255L.88 9.505a2.75 2.75 0 002.704 3.245h4.18l-.513 1.311a3.786 3.786 0 003.566 5.106.917.917 0 00.834-.541l2.612-5.876h2.155a2.75 2.75 0 002.75-2.75V3.583a2.75 2.75 0 00-2.75-2.75zM12.75 11.641l-2.493 5.61a1.953 1.953 0 01-1.265-2.548l.485-1.311a1.833 1.833 0 00-1.714-2.475h-4.18a.917.917 0 01-.706-.33.916.916 0 01-.21-.752L3.83 3.418a.917.917 0 01.916-.751h8.003v8.974zm4.583-1.64a.917.917 0 01-.916.916h-1.834v-8.25h1.834a.917.917 0 01.916.917V10z" fill="#87919C"/></svg>