<svg width="18" height="18" fill="none" xmlns="http://www.w3.org/2000/svg"><path d="M12.342 9.638a5.396 5.396 0 001.852-2.721 5.369 5.369 0 00-.08-3.286 5.4 5.4 0 00-1.98-2.63A5.447 5.447 0 005.84 1a5.4 5.4 0 00-1.98 2.63 5.369 5.369 0 00-.08 3.286 5.396 5.396 0 001.852 2.721 9.04 9.04 0 00-3.836 2.906 8.968 8.968 0 00-1.79 4.452.9.9 0 00.195.665.912.912 0 001.614-.467 7.183 7.183 0 012.368-4.561A7.258 7.258 0 019.005 10.8c1.779 0 3.496.652 4.822 1.832a7.183 7.183 0 012.368 4.561.907.907 0 00.904.8h.1a.906.906 0 00.603-.331.896.896 0 00.193-.658 8.967 8.967 0 00-1.8-4.463 9.04 9.04 0 00-3.853-2.904zM8.987 9a3.632 3.632 0 01-2.01-.607A3.602 3.602 0 015.644 6.78a3.58 3.58 0 01.784-3.921 3.636 3.636 0 013.943-.78 3.614 3.614 0 011.624 1.325 3.584 3.584 0 01-.45 4.543A3.628 3.628 0 018.987 9z" fill="#fff"/></svg>