<svg xmlns="http://www.w3.org/2000/svg"><symbol id="uEA01-burger" viewBox="0 0 50 37" xmlns="http://www.w3.org/2000/svg"><path d="M2 2h46H2zm0 16.5h46H2zM2 35h46H2z" fill="none" stroke="#6f6f6f" stroke-width="4" stroke-linejoin="round"/></symbol><symbol viewBox="0 0 23 23" id="uEA02-check" xmlns="http://www.w3.org/2000/svg"><path class="bst0" d="M17.2 6.3l-8.1 8.2-3.3-3.4c-.4-.4-1.1-.4-1.5 0-.4.4-.4 1.1 0 1.5l4.1 4.1c.2.2.4.3.7.3.3 0 .5-.1.8-.3l8.8-8.9c.4-.4.4-1.1 0-1.5-.4-.4-1.1-.4-1.5 0z"/></symbol><symbol id="uEA03-close-small" viewBox="0 0 6.8 6.8" xmlns="http://www.w3.org/2000/svg"><path d="M6.5 5.1c.4.4.4 1 0 1.4-.2.2-.5.3-.7.3-.3 0-.5-.1-.7-.3L3.4 4.8 1.7 6.5c-.2.2-.4.3-.7.3-.3 0-.5-.1-.7-.3-.4-.4-.4-1 0-1.4L2 3.4.3 1.7C-.1 1.3-.1.7.3.3c.4-.4 1-.4 1.4 0L3.4 2 5.1.3c.4-.4 1-.4 1.4 0 .4.4.4 1 0 1.4L4.8 3.4l1.7 1.7z" fill="#0f9fae"/></symbol><symbol id="uEA04-close" viewBox="0 0 18 18" xmlns="http://www.w3.org/2000/svg"><path d="M15.9 17.6l-6.9-7-6.9 7c-.2.3-.5.4-.8.4-.7 0-1.3-.6-1.3-1.3 0-.3.1-.7.4-.9L7.1 9 .4 2.3C.2 2 0 1.7 0 1.3 0 .6.6 0 1.3 0c.3 0 .6.1.9.4l6.9 7 6.9-7c.1-.3.4-.4.7-.4.7 0 1.3.6 1.3 1.3 0 .3-.1.7-.4.9L10.9 9l6.6 6.7c.3.2.4.6.4 1 0 .7-.6 1.3-1.3 1.3-.2 0-.5-.1-.7-.4z" fill="#fff"/></symbol><symbol viewBox="0 0 20 20" id="uEA05-dropdown" xmlns="http://www.w3.org/2000/svg"><path d="M17.8 5.5C17 4.1 15.9 3 14.5 2.2 13.1 1.4 11.6 1 10 1s-3.1.4-4.5 1.2C4.1 3 3 4.1 2.2 5.5 1.4 6.9 1 8.4 1 10s.4 3.1 1.2 4.5c.8 1.4 1.9 2.5 3.3 3.3 1.4.8 2.9 1.2 4.5 1.2s3.1-.4 4.5-1.2c1.4-.8 2.5-1.9 3.3-3.3.8-1.4 1.2-2.9 1.2-4.5s-.4-3.1-1.2-4.5zm-2 3.9l-5.3 5.3c-.1.1-.3.2-.5.2s-.4-.1-.5-.2L4.2 9.4c-.2-.1-.3-.3-.3-.5s.1-.4.3-.6l1.2-1.2c.1-.1.3-.2.5-.2s.4.1.5.2l3.6 3.6 3.6-3.6c.1-.1.3-.2.5-.2s.4.1.5.2l1.2 1.2c.1.1.2.3.2.5.1.3 0 .5-.2.6z"/></symbol><symbol viewBox="0 0 480 448" id="uEA06-image" xmlns="http://www.w3.org/2000/svg"><path d="M160 144c0 26.5-21.5 48-48 48s-48-21.5-48-48 21.5-48 48-48 48 21.5 48 48zm256 96v112H64v-48l80-80 40 40 128-128zm24-176H40c-4.25 0-8 3.75-8 8v304c0 4.25 3.75 8 8 8h400c4.25 0 8-3.75 8-8V72c0-4.25-3.75-8-8-8zm40 8v304c0 22-18 40-40 40H40c-22 0-40-18-40-40V72c0-22 18-40 40-40h400c22 0 40 18 40 40z"/></symbol><symbol id="uEA07-question" viewBox="0 0 30.7 30.7" xmlns="http://www.w3.org/2000/svg"><path d="M15.3 21.2c.2 0 .4 0 .6.1.2.1.3.2.5.3s.2.3.3.5.1.4.1.6 0 .4-.1.6-.2.3-.3.5c-.1.1-.3.2-.5.3-.2.1-.4.1-.6.1s-.4 0-.6-.1c-.2-.1-.3-.2-.5-.3-.1-.1-.2-.3-.3-.5s-.1-.4-.1-.6 0-.4.1-.6.2-.3.3-.5c.1-.1.3-.2.5-.3.2-.1.4-.1.6-.1zm0-13.5c-2.6 0-4.8 2.1-4.8 4.8 0 .7.5 1.2 1.2 1.2s1.2-.5 1.2-1.2c0-1.3 1.1-2.4 2.4-2.4 1.3 0 2.4 1.1 2.4 2.4 0 1.3-1.1 2.4-2.4 2.4-.7 0-1.2.5-1.2 1.2v3c0 .7.5 1.2 1.2 1.2s1.2-.5 1.2-1.2v-1.9c2.1-.5 3.6-2.4 3.6-4.6 0-2.8-2.1-4.9-4.8-4.9z" fill="#00b7ca"/></symbol><symbol viewBox="0 0 124 124" id="uEA08-minus" xmlns="http://www.w3.org/2000/svg"><path d="M112 50H12C5.4 50 0 55.4 0 62s5.4 12 12 12h100c6.6 0 12-5.4 12-12s-5.4-12-12-12z"/></symbol><symbol viewBox="0 0 448 448" id="uEA09-plus" xmlns="http://www.w3.org/2000/svg"><path d="M408 184H272a8 8 0 01-8-8V40c0-22.09-17.91-40-40-40s-40 17.91-40 40v136a8 8 0 01-8 8H40c-22.09 0-40 17.91-40 40s17.91 40 40 40h136a8 8 0 018 8v136c0 22.09 17.91 40 40 40s40-17.91 40-40V272a8 8 0 018-8h136c22.09 0 40-17.91 40-40s-17.91-40-40-40zm0 0"/></symbol></svg>