<svg xmlns="http://www.w3.org/2000/svg" xmlns:xlink="http://www.w3.org/1999/xlink"><symbol id="dislike" viewBox="0 0 20 20">
<path d="M16.4166 0.833496H4.74748C4.10415 0.833711 3.48126 1.05946 2.98718 1.47147C2.49311 1.88349 2.15911 2.45568 2.04331 3.0885L0.879145 9.50516C0.806608 9.90156 0.822078 10.3091 0.924461 10.6988C1.02684 11.0886 1.21364 11.4511 1.47162 11.7607C1.7296 12.0703 2.05248 12.3193 2.41739 12.4903C2.7823 12.6613 3.18033 12.75 3.58331 12.7502H7.76331L7.24998 14.061C7.03646 14.6349 6.96535 15.2521 7.04275 15.8596C7.12016 16.467 7.34376 17.0466 7.69439 17.5487C8.04502 18.0508 8.5122 18.4603 9.05587 18.7421C9.59953 19.0239 10.2034 19.1697 10.8158 19.1668C10.9921 19.1665 11.1646 19.1152 11.3126 19.0193C11.4605 18.9234 11.5777 18.7868 11.65 18.626L14.2625 12.7502H16.4166C17.146 12.7502 17.8455 12.4604 18.3612 11.9447C18.8769 11.429 19.1666 10.7295 19.1666 10.0002V3.5835C19.1666 2.85415 18.8769 2.15468 18.3612 1.63895C17.8455 1.12323 17.146 0.833496 16.4166 0.833496ZM12.75 11.641L10.2566 17.251C10.0015 17.1738 9.76492 17.0452 9.56139 16.8731C9.35786 16.701 9.19173 16.4891 9.07321 16.2503C8.9547 16.0116 8.88633 15.7511 8.8723 15.4849C8.85827 15.2188 8.89889 14.9525 8.99165 14.7027L9.47748 13.3918C9.581 13.1148 9.61595 12.8168 9.57934 12.5233C9.54274 12.2298 9.43566 11.9495 9.26726 11.7063C9.09885 11.4632 8.87412 11.2644 8.61223 11.1269C8.35035 10.9894 8.05909 10.9173 7.76331 10.9168H3.58331C3.44864 10.917 3.31558 10.8876 3.19359 10.8306C3.07159 10.7735 2.96367 10.6903 2.87748 10.5868C2.78917 10.4848 2.72449 10.3645 2.68804 10.2346C2.6516 10.1046 2.64429 9.96825 2.66665 9.83516L3.83081 3.4185C3.86986 3.20495 3.98342 3.01219 4.15129 2.87455C4.31915 2.7369 4.53042 2.66329 4.74748 2.66683H12.75V11.641ZM17.3333 10.0002C17.3333 10.2433 17.2367 10.4764 17.0648 10.6483C16.8929 10.8203 16.6598 10.9168 16.4166 10.9168H14.5833V2.66683H16.4166C16.6598 2.66683 16.8929 2.76341 17.0648 2.93531C17.2367 3.10722 17.3333 3.34038 17.3333 3.5835V10.0002Z" fill="#87919C"/>
</symbol><symbol id="ellipsis " viewBox="0 0 4 14">
<path d="M1.9999 3.43535C2.28192 3.43535 2.55761 3.35172 2.7921 3.19504C3.02659 3.03835 3.20936 2.81565 3.31728 2.5551C3.42521 2.29455 3.45345 2.00784 3.39843 1.73124C3.34341 1.45464 3.2076 1.20056 3.00818 1.00114C2.80876 0.801721 2.55469 0.665915 2.27808 0.610895C2.00148 0.555876 1.71478 0.584114 1.45422 0.692039C1.19367 0.799964 0.97097 0.982728 0.814287 1.21722C0.657605 1.45171 0.573975 1.7274 0.573975 2.00942C0.573975 2.3876 0.724207 2.75029 0.99162 3.0177C1.25903 3.28512 1.62172 3.43535 1.9999 3.43535ZM1.9999 10.565C1.71788 10.565 1.44219 10.6486 1.2077 10.8053C0.973207 10.962 0.790442 11.1847 0.682517 11.4452C0.574592 11.7058 0.546354 11.9925 0.601374 12.2691C0.656394 12.5457 0.7922 12.7998 0.99162 12.9992C1.19104 13.1986 1.44511 13.3344 1.72172 13.3894C1.99832 13.4444 2.28502 13.4162 2.54558 13.3083C2.80613 13.2004 3.02883 13.0176 3.18551 12.7831C3.3422 12.5486 3.42583 12.2729 3.42583 11.9909C3.42583 11.6127 3.27559 11.25 3.00818 10.9826C2.74077 10.7152 2.37808 10.565 1.9999 10.565ZM1.9999 5.57424C1.71788 5.57424 1.44219 5.65787 1.2077 5.81455C0.973207 5.97123 0.790442 6.19393 0.682517 6.45448C0.574592 6.71504 0.546354 7.00174 0.601374 7.27835C0.656394 7.55495 0.7922 7.80902 0.99162 8.00844C1.19104 8.20786 1.44511 8.34367 1.72172 8.39869C1.99832 8.45371 2.28502 8.42547 2.54558 8.31754C2.80613 8.20962 3.02883 8.02686 3.18551 7.79236C3.3422 7.55787 3.42583 7.28218 3.42583 7.00016C3.42583 6.62198 3.27559 6.25929 3.00818 5.99188C2.74077 5.72447 2.37808 5.57424 1.9999 5.57424Z" fill="#87919C"/>
</symbol><symbol id="like" viewBox="0 0 20 20">
<path d="M18.5249 8.2402C18.2673 7.93096 17.945 7.68203 17.5807 7.51097C17.2164 7.33991 16.819 7.25089 16.4166 7.2502H12.2366L12.7499 5.93937C12.9634 5.36543 13.0345 4.74826 12.9571 4.1408C12.8797 3.53334 12.6561 2.95372 12.3055 2.45166C11.9549 1.94961 11.4877 1.5401 10.944 1.25827C10.4004 0.976436 9.79645 0.830692 9.18408 0.833537C9.00775 0.833905 8.83527 0.885123 8.68732 0.98105C8.53936 1.07698 8.42221 1.21354 8.34992 1.37437L5.73742 7.2502H3.58325C2.85391 7.2502 2.15443 7.53994 1.63871 8.05566C1.12298 8.57138 0.833252 9.27086 0.833252 10.0002V16.4169C0.833252 17.1462 1.12298 17.8457 1.63871 18.3614C2.15443 18.8771 2.85391 19.1669 3.58325 19.1669H15.2524C15.8957 19.1667 16.5186 18.9409 17.0127 18.5289C17.5068 18.1169 17.8408 17.5447 17.9566 16.9119L19.1208 10.4952C19.1928 10.0986 19.1767 9.69109 19.0737 9.30141C18.9708 8.91173 18.7834 8.54944 18.5249 8.2402ZM5.41659 17.3335H3.58325C3.34014 17.3335 3.10698 17.237 2.93507 17.0651C2.76316 16.8931 2.66659 16.66 2.66659 16.4169V10.0002C2.66659 9.75709 2.76316 9.52393 2.93507 9.35202C3.10698 9.18011 3.34014 9.08354 3.58325 9.08354H5.41659V17.3335ZM17.3333 10.1652L16.1691 16.5819C16.13 16.7954 16.0165 16.9882 15.8486 17.1258C15.6807 17.2635 15.4695 17.3371 15.2524 17.3335H7.24992V8.35937L9.74325 2.74937C9.9999 2.82419 10.2383 2.95141 10.4433 3.12299C10.6483 3.29457 10.8155 3.50678 10.9344 3.74624C11.0532 3.9857 11.1212 4.24719 11.1339 4.51423C11.1466 4.78126 11.1038 5.04803 11.0083 5.2977L10.5224 6.60854C10.4189 6.8856 10.3839 7.18361 10.4206 7.47711C10.4572 7.77061 10.5642 8.0509 10.7326 8.29405C10.901 8.5372 11.1258 8.736 11.3877 8.87347C11.6496 9.01095 11.9408 9.08302 12.2366 9.08354H16.4166C16.5513 9.08332 16.6843 9.11277 16.8063 9.16981C16.9283 9.22685 17.0362 9.31006 17.1224 9.41354C17.2107 9.51558 17.2754 9.63587 17.3119 9.7658C17.3483 9.89574 17.3556 10.0321 17.3333 10.1652Z" fill="#87919C"/>
</symbol><symbol id="minus" viewBox="0 0 18 18">
<path d="M8.99996 0.666504C7.35179 0.666504 5.74062 1.15525 4.37021 2.07092C2.9998 2.9866 1.9317 4.28809 1.30097 5.81081C0.670237 7.33353 0.505209 9.00908 0.826752 10.6256C1.1483 12.2421 1.94197 13.727 3.10741 14.8924C4.27284 16.0578 5.7577 16.8515 7.37421 17.173C8.99072 17.4946 10.6663 17.3296 12.189 16.6988C13.7117 16.0681 15.0132 15 15.9289 13.6296C16.8446 12.2592 17.3333 10.648 17.3333 8.99984C17.3333 7.90549 17.1177 6.82186 16.699 5.81081C16.2802 4.79976 15.6663 3.8811 14.8925 3.10728C14.1187 2.33346 13.2 1.71963 12.189 1.30084C11.1779 0.882052 10.0943 0.666504 8.99996 0.666504ZM8.99996 15.6665C7.68142 15.6665 6.39249 15.2755 5.29616 14.543C4.19983 13.8104 3.34535 12.7692 2.84077 11.5511C2.33618 10.3329 2.20416 8.99244 2.46139 7.69924C2.71863 6.40603 3.35357 5.21814 4.28592 4.28579C5.21827 3.35344 6.40615 2.7185 7.69936 2.46127C8.99257 2.20403 10.333 2.33606 11.5512 2.84064C12.7694 3.34522 13.8105 4.19971 14.5431 5.29604C15.2756 6.39236 15.6666 7.6813 15.6666 8.99984C15.6666 10.7679 14.9643 12.4636 13.714 13.7139C12.4638 14.9641 10.7681 15.6665 8.99996 15.6665ZM12.3333 8.1665H5.66663C5.44562 8.1665 5.23365 8.2543 5.07737 8.41058C4.92109 8.56686 4.8333 8.77882 4.8333 8.99984C4.8333 9.22085 4.92109 9.43281 5.07737 9.58909C5.23365 9.74537 5.44562 9.83317 5.66663 9.83317H12.3333C12.5543 9.83317 12.7663 9.74537 12.9226 9.58909C13.0788 9.43281 13.1666 9.22085 13.1666 8.99984C13.1666 8.77882 13.0788 8.56686 12.9226 8.41058C12.7663 8.2543 12.5543 8.1665 12.3333 8.1665Z" fill="#E3405E"/>
</symbol><symbol id="no-pic" viewBox="0 0 18 18">
<path d="M12.3421 9.63839C13.2288 8.94458 13.876 7.99317 14.1937 6.91651C14.5114 5.83985 14.4837 4.69148 14.1146 3.63117C13.7455 2.57087 13.0532 1.65135 12.1341 1.00054C11.215 0.349732 10.1148 0 8.98659 0C7.85834 0 6.75814 0.349732 5.83906 1.00054C4.91997 1.65135 4.22771 2.57087 3.85858 3.63117C3.48945 4.69148 3.4618 5.83985 3.77948 6.91651C4.09717 7.99317 4.74439 8.94458 5.6311 9.63839C4.1117 10.2438 2.78598 11.2479 1.79525 12.5436C0.80453 13.8394 0.185949 15.3783 0.00545546 16.9961C-0.0076096 17.1143 0.00284753 17.2338 0.0362296 17.3479C0.0696116 17.462 0.125265 17.5684 0.200012 17.6612C0.35097 17.8484 0.570537 17.9683 0.810411 17.9946C1.05028 18.0208 1.29082 17.9512 1.47909 17.8011C1.66736 17.651 1.78796 17.4326 1.81434 17.194C2.01295 15.4357 2.85598 13.8118 4.18238 12.6326C5.50877 11.4533 7.22554 10.8014 9.00467 10.8014C10.7838 10.8014 12.5006 11.4533 13.827 12.6326C15.1534 13.8118 15.9964 15.4357 16.195 17.194C16.2196 17.4151 16.3256 17.6192 16.4927 17.767C16.6597 17.9149 16.8759 17.9959 17.0994 17.9946H17.1989C17.436 17.9674 17.6527 17.8482 17.8018 17.6629C17.9509 17.4776 18.0203 17.2411 17.9948 17.0051C17.8135 15.3827 17.1916 13.8399 16.1958 12.5421C15.2 11.2443 13.8678 10.2406 12.3421 9.63839ZM8.98659 8.99976C8.27106 8.99976 7.5716 8.78874 6.97666 8.3934C6.38172 7.99805 5.91802 7.43613 5.6442 6.7787C5.37037 6.12126 5.29873 5.39784 5.43832 4.69991C5.57792 4.00198 5.92248 3.36089 6.42843 2.85771C6.93439 2.35453 7.57901 2.01187 8.28079 1.87304C8.98257 1.73421 9.70999 1.80546 10.371 2.07778C11.0321 2.3501 11.5971 2.81126 11.9947 3.40293C12.3922 3.99461 12.6044 4.69023 12.6044 5.40183C12.6044 6.35606 12.2232 7.27121 11.5447 7.94595C10.8663 8.62069 9.94608 8.99976 8.98659 8.99976Z" fill="white"/>
</symbol><symbol id="plus" viewBox="0 0 18 18">
<path d="M8.99996 0.666504C7.35179 0.666504 5.74062 1.15525 4.37021 2.07092C2.9998 2.9866 1.9317 4.28809 1.30097 5.81081C0.670237 7.33353 0.505209 9.00908 0.826752 10.6256C1.1483 12.2421 1.94197 13.727 3.10741 14.8924C4.27284 16.0578 5.7577 16.8515 7.37421 17.173C8.99072 17.4946 10.6663 17.3296 12.189 16.6988C13.7117 16.0681 15.0132 15 15.9289 13.6296C16.8446 12.2592 17.3333 10.648 17.3333 8.99984C17.3333 7.90549 17.1177 6.82186 16.699 5.81081C16.2802 4.79976 15.6663 3.8811 14.8925 3.10728C14.1187 2.33346 13.2 1.71963 12.189 1.30084C11.1779 0.882052 10.0943 0.666504 8.99996 0.666504ZM8.99996 15.6665C7.68142 15.6665 6.39249 15.2755 5.29616 14.543C4.19983 13.8104 3.34535 12.7692 2.84077 11.5511C2.33618 10.3329 2.20416 8.99244 2.46139 7.69924C2.71863 6.40603 3.35357 5.21814 4.28592 4.28579C5.21827 3.35344 6.40615 2.7185 7.69936 2.46127C8.99257 2.20403 10.333 2.33606 11.5512 2.84064C12.7694 3.34522 13.8105 4.19971 14.5431 5.29604C15.2756 6.39236 15.6666 7.6813 15.6666 8.99984C15.6666 10.7679 14.9643 12.4636 13.714 13.7139C12.4638 14.9641 10.7681 15.6665 8.99996 15.6665ZM12.3333 8.1665H9.8333V5.6665C9.8333 5.44549 9.7455 5.23353 9.58922 5.07725C9.43294 4.92097 9.22098 4.83317 8.99996 4.83317C8.77895 4.83317 8.56699 4.92097 8.41071 5.07725C8.25443 5.23353 8.16663 5.44549 8.16663 5.6665V8.1665H5.66663C5.44562 8.1665 5.23365 8.2543 5.07737 8.41058C4.92109 8.56686 4.8333 8.77882 4.8333 8.99984C4.8333 9.22085 4.92109 9.43281 5.07737 9.58909C5.23365 9.74537 5.44562 9.83317 5.66663 9.83317H8.16663V12.3332C8.16663 12.5542 8.25443 12.7661 8.41071 12.9224C8.56699 13.0787 8.77895 13.1665 8.99996 13.1665C9.22098 13.1665 9.43294 13.0787 9.58922 12.9224C9.7455 12.7661 9.8333 12.5542 9.8333 12.3332V9.83317H12.3333C12.5543 9.83317 12.7663 9.74537 12.9226 9.58909C13.0788 9.43281 13.1666 9.22085 13.1666 8.99984C13.1666 8.77882 13.0788 8.56686 12.9226 8.41058C12.7663 8.2543 12.5543 8.1665 12.3333 8.1665Z" fill="#10B97B"/>
</symbol><symbol id="star" viewBox="0 0 24 24">
<path d="M11.1679 1.06072C11.3248 0.743858 11.6478 0.542969 12.001 0.542969C12.3541 0.542969 12.6777 0.743858 12.834 1.06072L15.822 7.11586C15.9571 7.38976 16.2191 7.57977 16.522 7.62378L23.2041 8.59457C23.5547 8.64531 23.8446 8.89073 23.9538 9.22675C24.0631 9.56277 23.972 9.93245 23.7188 10.1789L18.884 14.8925C18.665 15.1059 18.565 15.4134 18.6163 15.7147L19.7574 22.3705C19.8165 22.7194 19.6741 23.0715 19.3872 23.2796C19.1009 23.4867 18.7224 23.5142 18.4087 23.3506L12.4317 20.2078C12.1615 20.0654 11.8379 20.0654 11.5671 20.2078L5.59012 23.3501C5.27739 23.5142 4.89788 23.4873 4.61156 23.2796C4.32524 23.072 4.18234 22.7194 4.24188 22.3705L5.38301 15.7147C5.43479 15.4134 5.33434 15.1059 5.11533 14.8925L0.280541 10.1789C0.0273592 9.93193 -0.0637656 9.56277 0.0454806 9.22675C0.154727 8.89073 0.445187 8.64531 0.795707 8.59457L7.47888 7.62378C7.78125 7.57977 8.04324 7.38976 8.17837 7.11535L11.1679 1.06072Z" fill="#CED7E0"/>
</symbol></svg>